<?xml version="1.0" encoding="utf-8"?>
<!-- Generator: Adobe Illustrator 27.2.0, SVG Export Plug-In . SVG Version: 6.00 Build 0)  -->
<svg version="1.1" id="Capa_1" xmlns="http://www.w3.org/2000/svg" xmlns:xlink="http://www.w3.org/1999/xlink" x="0px" y="0px"
	 viewBox="0 0 884.6 222.1" style="enable-background:new 0 0 884.6 222.1;" xml:space="preserve">
<style type="text/css">
	.st0{fill:#E17369;}
</style>
<g>
	<g>
		<path class="st0" d="M24.3,78.5l8.8,15.3L56,133.2l22.8,39.4l8.6,14.8c6.3,10.9,22.1,10.9,28.5,0l8.6-14.8l28.4-48.8
			c-3.5,5.6-16.9,27.1-28.7,27.7c-7.1,0.4-12.9-2.4-16.4-8c-0.2-0.3-0.4-0.7-0.6-1.1l-5.4-9.3l0,0L77.4,91.4
			c-4.6-8-13.1-12.9-22.3-12.9H24.3z"/>
		<g>
			<path class="st0" d="M181.4,29.9c3.5-2.9,7.6-4.4,12.5-4.4c4.7,0,8.8,1.6,12.5,4.7c3.6,3.1,5.5,7.3,5.5,12.5
				c0,5.4-1.8,9.7-5.5,13c-3.6,3.5-7.8,5.2-12.5,5.2c-4.7,0-8.8-1.7-12.5-5.1c-3.6-3.4-5.5-7.8-5.5-13.1
				C176,37.2,177.8,33,181.4,29.9z M210.3,78.5L210,198.2h-32.5V78.5H210.3z"/>
			<path class="st0" d="M232.7,103.2V78.5h15.6V41.8h32.5v36.7h25.5v24.7h-25.5v55.1c0,3.3,0.4,6,1.3,8.1c0.9,2.1,2.2,3.6,4,4.4
				c1.8,0.9,3.5,1.4,4.9,1.7c1.5,0.3,3.4,0.4,5.9,0.4h8.1v25.2h-21.6c-23.4,0-35.1-11.5-35.1-34.6v-60.4H232.7z"/>
			<path class="st0" d="M337,93.9c10.6-11.4,24.1-17.2,40.6-17.2c14.2,0,25.7,4.9,34.3,14.6V78.5h32.5v119.7h-32.5v-12.5
				c-8.7,9.7-20.1,14.6-34.3,14.6c-16.3,0-29.8-5.9-40.6-17.6c-10.8-11.7-16.1-26.5-16.1-44.4C320.8,120.3,326.2,105.5,337,93.9z
				 M352.3,138.3c0,9,2.8,16.5,8.3,22.4c5.5,5.9,12.7,8.8,21.6,8.8c8.8,0,16-2.9,21.5-8.8c5.5-5.9,8.2-13.4,8.2-22.4
				c0-9-2.7-16.5-8.2-22.4c-5.5-5.9-12.6-8.8-21.5-8.8c-8.8,0-16,3-21.6,8.8C355.1,121.9,352.3,129.3,352.3,138.3z"/>
			<path class="st0" d="M473,78.5h32.5v11.4c8.2-8.8,19.3-13.3,33.6-13.3c12.7,0,23.6,3.9,32.8,11.6c9.2,7.7,13.8,20,13.8,36.8v73.1
				h-32.5V130c0-9.4-2.5-16-7.4-20c-4.9-4-10.4-6-16.5-6c-6.1,0-11.5,2-16.4,6c-4.9,4-7.3,10.7-7.3,20v68.2H473V78.5z"/>
			<path class="st0" d="M626,93.9c10.6-11.4,24.1-17.2,40.6-17.2c14.2,0,25.7,4.9,34.3,14.6V78.5h32.5v119.7h-32.5v-12.5
				c-8.7,9.7-20.1,14.6-34.3,14.6c-16.3,0-29.8-5.9-40.6-17.6c-10.8-11.7-16.1-26.5-16.1-44.4C609.9,120.3,615.2,105.5,626,93.9z
				 M641.3,138.3c0,9,2.8,16.5,8.3,22.4c5.5,5.9,12.7,8.8,21.6,8.8c8.8,0,16-2.9,21.5-8.8c5.5-5.9,8.2-13.4,8.2-22.4
				c0-9-2.7-16.5-8.2-22.4c-5.5-5.9-12.6-8.8-21.5-8.8c-8.8,0-16,3-21.6,8.8C644.1,121.9,641.3,129.3,641.3,138.3z"/>
			<path class="st0" d="M777.1,158.1c1.6,3.8,5.6,7.7,12,11.7c6.4,4,13.1,6,20,6c11.4,0,17.2-3.7,17.2-11.2c0-1.9-0.5-3.6-1.4-4.9
				c-1-1.4-2.5-2.6-4.7-3.8c-2.2-1.1-4-2-5.6-2.6c-1.6-0.6-3.9-1.3-7-2.2c-3.1-0.9-5.1-1.5-6-1.8c-0.2,0-1.7-0.4-4.4-1.3
				c-2.8-0.9-4.8-1.6-6.1-2.1c-1.3-0.5-3.5-1.4-6.5-2.7c-3-1.3-5.5-2.5-7.3-3.6c-1.8-1.1-3.9-2.7-6.4-4.7c-2.4-2-4.3-4-5.6-6.1
				c-1.3-2.1-2.5-4.6-3.5-7.4c-1-2.9-1.6-5.9-1.6-9c0-12.1,4.6-21.2,13.7-27.3c9.1-6.1,20.6-9.1,34.5-9.1c12.3,0,22.8,2.4,31.5,7.3
				c8.7,4.9,14.7,10.8,17.9,17.9l-21.1,13.5c-2.1-3.3-6-6.5-11.8-9.5c-5.8-3-11.7-4.6-17.6-4.6c-10.2,0-15.3,3.4-15.3,10.1
				c0,1.9,0.5,3.6,1.4,4.9c0.9,1.4,2.5,2.6,4.7,3.8c2.2,1.1,3.9,2,5.3,2.6c1.4,0.6,3.6,1.3,6.8,2.2c3.1,0.9,5.1,1.5,6,1.8
				c0.2,0,1.3,0.4,3.4,1l4.7,1.6c1,0.4,2.7,1,5.1,2c2.3,1,4.2,1.8,5.7,2.5c1.5,0.7,3.3,1.7,5.6,3c2.3,1.3,4.1,2.6,5.5,3.9
				c1.4,1.3,2.9,2.8,4.6,4.6c1.6,1.7,2.9,3.5,3.9,5.3c1,1.8,1.8,3.9,2.5,6.2c0.7,2.3,1,4.7,1,7.2c0,12.5-4.3,22-13,28.6
				c-8.7,6.6-20.8,9.9-36.4,9.9c-13.7,0-25.2-2.8-34.6-8.5c-9.4-5.6-15.7-12.4-19-20.4L777.1,158.1z"/>
		</g>
	</g>
</g>
</svg>
